# xmcd
#
# Track frame offsets:
#	150
#	46593
#	75746
#	141958
#	210594
#	235658
#
# Disc length: 3551 seconds
#
# Revision: 0
# Processed by: cddbd v1.4PL0 Copyright (c) Steve Scherf et al.
# Submitted via: EasyCDDAExtractor 4.6.9.1
#
DISCID=440ddd06
DTITLE=Colloseum - E-Werk Köln-1994 CD 2
DYEAR=1900
DGENRE=
TTITLE0=Ropeladder To The Moon
TTITLE1=Theme From An Imaginary Western
TTITLE2=The Kettle
TTITLE3=Lost Angeles
TTITLE4=Stormy Monday Blues
TTITLE5=Walking In The Park
EXTD=
EXTT0=
EXTT1=
EXTT2=
EXTT3=
EXTT4=
EXTT5=
PLAYORDER=
